<?xml version="1.0" ?>
<!-- Uploaded to: SVG Repo, www.svgrepo.com, Generator: SVG Repo Mixer Tools -->
<svg width="800px" height="800px" viewBox="0 0 64 64" xmlns="http://www.w3.org/2000/svg">
<defs>
<style>.cls-1,.cls-2{fill:none;stroke:#000000;stroke-width:2px;}.cls-2{stroke-linejoin:round;}</style>
</defs>
<title/>
<g data-name="Layer 19" id="Layer_19">
<circle class="cls-1" cx="46" cy="43" r="5"/>
<path class="cls-2" d="M46,48h0a7,7,0,0,1,7,7v7a0,0,0,0,1,0,0H39a0,0,0,0,1,0,0V55A7,7,0,0,1,46,48Z"/>
<circle class="cls-1" cx="32" cy="43" r="5"/>
<path class="cls-2" d="M32,48h0a7,7,0,0,1,7,7v7a0,0,0,0,1,0,0H25a0,0,0,0,1,0,0V55A7,7,0,0,1,32,48Z"/>
<circle class="cls-1" cx="18" cy="43" r="5"/>
<path class="cls-2" d="M18,48h0a7,7,0,0,1,7,7v7a0,0,0,0,1,0,0H11a0,0,0,0,1,0,0V55A7,7,0,0,1,18,48Z"/>
<rect class="cls-2" height="4" width="60" x="2" y="22"/>
<rect class="cls-2" height="4" width="56" x="4" y="6"/>
<line class="cls-2" x1="55" x2="45" y1="18" y2="18"/>
<line class="cls-2" x1="43" x2="41" y1="18" y2="18"/>
<rect class="cls-2" height="12" width="52" x="6" y="10"/>
<polyline class="cls-2" points="6 6 10 2 54 2 58 6"/>
<polyline class="cls-2" points="13 44 4 44 4 26 60 26 60 44 51 44"/>
<line class="cls-2" x1="27" x2="23" y1="44" y2="44"/>
<line class="cls-2" x1="41" x2="37" y1="44" y2="44"/>
</g>
</svg>