<?xml version="1.0" ?>
<!-- Uploaded to: SVG Repo, www.svgrepo.com, Generator: SVG Repo Mixer Tools -->
<svg width="800px" height="800px" viewBox="0 0 64 64" xmlns="http://www.w3.org/2000/svg">
<defs>
<style>.cls-1{fill:none;stroke:#000000;stroke-linejoin:round;stroke-width:2px;}</style>
</defs>
<title/>
<g data-name="Layer 9" id="Layer_9">
<path class="cls-1" d="M23,62H6a4,4,0,0,1-4-4V16H34V49"/>
<rect class="cls-1" height="6" width="24" x="6" y="10"/>
<polygon class="cls-1" points="34 10 2 10 4 2 32 2 34 10"/>
<rect class="cls-1" height="16" width="24" x="6" y="22"/>
<line class="cls-1" x1="9" x2="27" y1="26" y2="26"/>
<line class="cls-1" x1="9" x2="27" y1="30" y2="30"/>
<line class="cls-1" x1="9" x2="27" y1="34" y2="34"/>
<path class="cls-1" d="M62,55a4,4,0,0,0-2-3.47,4,4,0,0,0-7.42-1.48A4.75,4.75,0,0,0,52,50a4,4,0,0,0-2.16.64,6,6,0,0,0-11.58-.4,4.95,4.95,0,0,0-7.91,2A5.07,5.07,0,0,0,29,52a5,5,0,0,0,0,10H49a4.85,4.85,0,0,0,1.57-.28A3.76,3.76,0,0,0,52,62a4,4,0,0,0,3-1.38,4,4,0,0,0,6.7-4.12A3.94,3.94,0,0,0,62,55Z"/>
<circle class="cls-1" cx="41" cy="35" r="3"/>
<circle class="cls-1" cx="54" cy="24" r="4"/>
<circle class="cls-1" cx="58" cy="41" r="3"/>
</g>
</svg>